<svg id="Layer_2" data-name="Layer 2" xmlns="http://www.w3.org/2000/svg" viewBox="0 0 991.4 1331.43"><defs><style>.cls-1{fill:#231f20;stroke:#231f20;stroke-miterlimit:10;}</style></defs><title>4</title><path class="cls-1" d="M636.67,132s-41.78,6.33-65.22,15.13a2.5,2.5,0,0,1-3.38-2.49c.7-11.85,6.41-47.7,49.61-61.3a3.73,3.73,0,0,0,2.59-3.84h0a3.73,3.73,0,0,0-3.93-3.44c-12.81.74-55.51,8-67.35,70.58a16.43,16.43,0,0,1-7.27,10.79,52.14,52.14,0,0,1-8.81,4.51,3.22,3.22,0,0,1-4.4-3.12c.56-15.65,6.87-66.36,63.61-87.94a3.72,3.72,0,0,0,2.38-3.48h0a3.72,3.72,0,0,0-4.31-3.68c-16,2.54-71.33,17.59-81.34,104.51a6.3,6.3,0,0,1-4,5.16,12.66,12.66,0,0,1-8.42.47,6.2,6.2,0,0,1-4.18-5.53c-.92-14.51-1.71-74.8,46-95.52a3.84,3.84,0,0,0,2.16-4.68h0a3.83,3.83,0,0,0-4.8-2.5c-14.31,4.41-64.88,27-60.3,124.37,0,0-39.33-25.5-74.83-25.5-32.48,0-55.75,14.65-64.07,23.27a3.68,3.68,0,0,0-.46,4.54h0a3.69,3.69,0,0,0,5.08,1.15c12.67-8,62.78-34.57,110.85,8.65a3.34,3.34,0,0,1-1,5.57l-.42.18a18,18,0,0,1-12.64,0c-18.42-6.71-93.72-29.37-129.95,32.5a2.39,2.39,0,0,0,.38,2.9h0a2.4,2.4,0,0,0,3.36,0c9.29-8.92,56.37-49.66,111-18.35a4.08,4.08,0,0,1,1.32,5.87,20,20,0,0,1-6.81,6.1,14.44,14.44,0,0,1-11.6.9c-16.06-5.44-71.44-20-94.38,28.77a2.7,2.7,0,0,0,2.42,3.86h0a2.67,2.67,0,0,0,2.15-1.07c4.46-6,32.72-33.2,80.43-15.81a3.48,3.48,0,0,1,1.44,5.56C383.28,275.56,324,345.13,324,460c0,0-1.28,91.46,34.38,154.73a10.92,10.92,0,0,1,1,8.24c-1.3,4.77-3,12.52-2.38,18,.86,7.32,2.09,15.38,11.68,18.12a20.42,20.42,0,0,0,10.64,0,38.6,38.6,0,0,0,14.68-7.5C404.33,643.33,587.5,504.5,587,486s-9-22.5-20.5-22.5-87.5,66-87.5,66-48-67.29-48-167.89S526.33,178,636.67,132Z" transform="translate(-307.1 -63.17)"/><path class="cls-1" d="M842.5,148s-50,15.5-65.5,82.5c0,0,34.5,16.5,45,20.5C822,251,821,176.5,842.5,148Z" transform="translate(-307.1 -63.17)"/><path class="cls-1" d="M889,165s18.5-14,41-14,105,24.5,111,134.5c0,0,4.5,60.52-44,76.26,0,0,36-46.26,12-96.76,0,0-.17.38-.52,1.05a38.24,38.24,0,0,1-53,15.73C941.79,273.86,926,258.37,926,229c0,0-1.25-36.5,39.06-36C965.06,193,962,166.27,889,165Z" transform="translate(-307.1 -63.17)"/><path class="cls-1" d="M909.5,394.5l3,41s59,7.5,94-28.5c0,0-46.5,8.32-65,0C924.17,399.2,915.5,395.5,909.5,394.5Z" transform="translate(-307.1 -63.17)"/><path class="cls-1" d="M725.5,283s8.5-13.5,36.5-13.5,107.67,19.83,114.5,132c0,0,5.17,60.5-41,79,0,0,34.5-53,11.5-101.5,0,0-6.47,15.75-19.2,23.62a27.54,27.54,0,0,1-22,2.91c-13.4-3.81-40.79-17.08-40.79-62,0,0,1-32.5,36-32.5C801,311,784.67,282.67,725.5,283Z" transform="translate(-307.1 -63.17)"/><path class="cls-1" d="M688.67,261.33s-94.62,30.46-87.7,157.2a11.05,11.05,0,0,1-3.91,9.06l-9.18,7.71a10.32,10.32,0,0,0-1.69,14L641,524.09a11.87,11.87,0,0,0,13.2,4.31l1.52-.48a17.58,17.58,0,0,1,15.42,2.32C694,546.2,772.3,589.55,861,510.5c0,0-19,13.5-53.5,13.5S663.33,466.67,663.33,342.67C663.33,342.67,664.33,285.67,688.67,261.33Z" transform="translate(-307.1 -63.17)"/><path class="cls-1" d="M616.06,524.42h0a20.52,20.52,0,0,1,.42,27.39c-9.15,10.53-23.14,24.78-39.81,35.52A285.58,285.58,0,0,0,529.19,626a5.62,5.62,0,0,0-1.2,6c5.11,12.91,23.91,60,35.34,84,13.34,28,26,78.33,24.67,110.33,0,0-76-2.33-88.11,18.75a1.92,1.92,0,0,1-3,.12c-2.91-3-9.57-12.06-20.91-38.53-15.1-35.24-39.11-71.66-58-91.33a5.92,5.92,0,0,0-7.28-1h0a9.65,9.65,0,0,1-12.56-2.47l-4.65-6.12a20.23,20.23,0,0,1,3.44-28c38.9-31.24,139.72-115.05,191.42-155.52A20.52,20.52,0,0,1,616.06,524.42Z" transform="translate(-307.1 -63.17)"/><path class="cls-1" d="M984.55,574.48c18-2.69,109.79-9,113,101,0,0-12,3-54.5.5s-96.5,18.5-134,53c-35,32.18-58.65,73.07-77.5,75.57a3.22,3.22,0,0,1-3.66-3.54c1.57-13.57,9.49-64.39,43.33-107.39a11.28,11.28,0,0,1,9.45-4.28c10.19.54,31.69.58,42.88-7.51,13.9-10.05,14.78-17.09,41.36-21a35.53,35.53,0,0,0,13.49-5c13.13-8.16,42.18-26.76,55.28-39.5a10.06,10.06,0,0,0,1.5-12.62c-5.89-9.3-20.2-25.15-50.55-28.5A.41.41,0,0,1,984.55,574.48Z" transform="translate(-307.1 -63.17)"/><path class="cls-1" d="M522.67,1074.67l30,5.33s4,62.67,11.33,83.33C564,1163.33,537.33,1164,522.67,1074.67Z" transform="translate(-307.1 -63.17)"/><path class="cls-1" d="M551.33,1235.33,640,1246.67s6.21,46.59,5.41,70.89a19.51,19.51,0,0,1-6.14,13.55c-13,12.24-46.2,43-62.6,53.56C556,1398,523.33,1403.33,483.33,1358c0,0-10-10-10.66-29.33S486,1294,498,1294c10.61,0,22.77,11.33,29.6,20.17a4.79,4.79,0,0,0,6.27,1.16c8.26-5,26.88-18.6,26.88-38.83C560.75,1257,550.17,1257.92,551.33,1235.33Z" transform="translate(-307.1 -63.17)"/><path class="cls-1" d="M1239.5,1001.5s3,38,2.5,52-.5,42-12,49-19.5,11-13.5,24.5c4.8,10.81,14.2,26.31,14.68,39.08a8.6,8.6,0,0,1-8.49,8.8c-17.4.36-61.36,5.61-61.36,49.45,0,0,2,15.67,13.67,23.67s21.39,25.67,26.69,37.33,16,15.34,28,15.34S1298,1289.5,1298,1206C1298,1134,1259.33,1012,1239.5,1001.5Z" transform="translate(-307.1 -63.17)"/><path class="cls-1" d="M657,963s-26.33,23.67-23,133c2.39,78.33,5.46,106.7,7,116.49a8.06,8.06,0,0,0,5,6.27c11.29,4.38,42.38,19.41,42,51.74-.5,39.5,0,58.5,0,58.5s41,24,124.5-2.5c0,0-2.53-17.22.57-33.52a6.78,6.78,0,0,1,1.58-3.26,6.41,6.41,0,0,1,5.24-2.26,7,7,0,0,1,6.38,7.3c-.2,5.6-.2,15.68,1.73,23.74,0,0,85,14.75,142-4.75,0,0,3.75-11,6.75-44.46s96.58-22.62,139.92-58.62,88-75.34,88-173.34S1154,719,1125,674c0,0-79.67,105.33-196.33,138,0,0-94.67,32.67-186,40s-207.34-6.67-246,28.67c0,0-5.34,44,14.66,66.66,0,0,113.34-47.33,262.67-44,0,0,20.31.5,38,1.66a39.74,39.74,0,0,1,35.23,27.42c8.41,26.08,18,75,12.75,156.26,0,0-60,20.66-191.33,10.66C668.67,1099.33,647.33,1050,657,963Z" transform="translate(-307.1 -63.17)"/></svg>